<svg xmlns="http://www.w3.org/2000/svg" viewBox="0 0 1200 800" width="1200" height="800">
<style>

      .domain { font: bold 14px sans-serif; fill: #fff; }
      .subfield { font: 11px sans-serif; fill: #e0e0e0; }
      .thread { font: 9px sans-serif; fill: #aaa; }
      .edge { stroke-opacity: 0.3; fill: none; }
      .gap-edge { stroke: #ff4444; stroke-dasharray: 6,4; stroke-opacity: 0.5; }
      text { pointer-events: none; }
    

      @keyframes pulse { 0%, 100% { opacity: 0.6; } 50% { opacity: 1; } }
      @keyframes drift { 0% { transform: translate(0, 0); } 50% { transform: translate(2px, -2px); } 100% { transform: translate(0, 0); } }
      @keyframes glow-travel {
        0% { stroke-dashoffset: 40; }
        100% { stroke-dashoffset: 0; }
      }
      .domain-node { animation: pulse 3s ease-in-out infinite; }
      .thread-node { animation: drift 5s ease-in-out infinite; }
      .synapse { stroke-dasharray: 8,4; animation: glow-travel 2s linear infinite; }
      .particle {
        animation: drift 4s ease-in-out infinite;
        opacity: 0.7;
      }
    
</style>
<defs>
  <filter id="glow"><feGaussianBlur stdDeviation="3" result="blur"/><feMerge><feMergeNode in="blur"/><feMergeNode in="SourceGraphic"/></feMerge></filter>
  <radialGradient id="neuron-grad"><stop offset="0%" stop-color="#fff" stop-opacity="0.3"/><stop offset="100%" stop-color="#fff" stop-opacity="0"/></radialGradient>
</defs>
<rect width="1200" height="800" fill="#0a0a1a" rx="12"/>
<text x="600" y="30" text-anchor="middle" fill="#fff" font-size="18" font-family="sans-serif" font-weight="bold">OSSR Research Landscape</text>
<line x1="600" y1="200" x2="506" y2="125" stroke="#1ea88e" stroke-width="2" class="edge synapse"/>
<line x1="773" y1="300" x2="791" y2="181" stroke="#e8725a" stroke-width="2" class="edge synapse"/>
<line x1="773" y1="500" x2="893" y2="491" stroke="#5b8def" stroke-width="2" class="edge synapse"/>
<line x1="600" y1="600" x2="668" y2="699" stroke="#f0a030" stroke-width="2" class="edge synapse"/>
<line x1="600" y1="200" x2="565" y2="85" stroke="#1ea88e" stroke-width="2" class="edge synapse"/>
<line x1="773" y1="300" x2="855" y2="212" stroke="#e8725a" stroke-width="2" class="edge synapse"/>
<line x1="427" y1="500" x2="409" y2="619" stroke="#9b59b6" stroke-width="2" class="edge synapse"/>
<line x1="427" y1="300" x2="315" y2="344" stroke="#1ea88e" stroke-width="2" class="edge synapse"/>
<line x1="427" y1="500" x2="345" y2="588" stroke="#9b59b6" stroke-width="2" class="edge synapse"/>
<line x1="427" y1="300" x2="310" y2="273" stroke="#1ea88e" stroke-width="2" class="edge synapse"/>
<line x1="427" y1="500" x2="310" y2="527" stroke="#9b59b6" stroke-width="2" class="edge synapse"/>
<line x1="427" y1="300" x2="345" y2="212" stroke="#1ea88e" stroke-width="2" class="edge synapse"/>
<line x1="773" y1="500" x2="877" y2="560" stroke="#5b8def" stroke-width="2" class="edge synapse"/>
<line x1="600" y1="600" x2="600" y2="720" stroke="#f0a030" stroke-width="2" class="edge synapse"/>
<line x1="600" y1="200" x2="635" y2="85" stroke="#1ea88e" stroke-width="2" class="edge synapse"/>
<line x1="773" y1="300" x2="890" y2="273" stroke="#e8725a" stroke-width="2" class="edge synapse"/>
<line x1="573" y1="517" x2="613" y2="487" stroke="#1ea88e" stroke-width="1" class="edge"/>
<line x1="643" y1="288" x2="602" y2="316" stroke="#1ea88e" stroke-width="1" class="edge"/>
<line x1="512" y1="481" x2="533" y2="436" stroke="#1ea88e" stroke-width="1" class="edge"/>
<line x1="565" y1="85" x2="592" y2="44" stroke="#1ea88e" stroke-width="1" class="edge"/>
<line x1="855" y1="212" x2="902" y2="227" stroke="#e8725a" stroke-width="1" class="edge"/>
<line x1="310" y1="527" x2="313" y2="477" stroke="#9b59b6" stroke-width="1" class="edge"/>
<line x1="345" y1="212" x2="304" y2="240" stroke="#1ea88e" stroke-width="1" class="edge"/>
<line x1="565" y1="85" x2="557" y2="11" stroke="#1ea88e" stroke-width="1" class="edge"/>
<line x1="855" y1="212" x2="828" y2="142" stroke="#e8725a" stroke-width="1" class="edge"/>
<line x1="643" y1="512" x2="686" y2="539" stroke="#1ea88e" stroke-width="1" class="edge"/>
<line x1="512" y1="319" x2="487" y2="362" stroke="#1ea88e" stroke-width="1" class="edge"/>
<line x1="720" y1="400" x2="676" y2="424" stroke="#1ea88e" stroke-width="1" class="edge"/>
<line x1="573" y1="517" x2="518" y2="466" stroke="#1ea88e" stroke-width="1" class="edge"/>
<line x1="481" y1="383" x2="431" y2="378" stroke="#1ea88e" stroke-width="1" class="edge"/>
<line x1="310" y1="527" x2="241" y2="556" stroke="#9b59b6" stroke-width="1" class="edge"/>
<line x1="345" y1="212" x2="308" y2="147" stroke="#1ea88e" stroke-width="1" class="edge"/>
<line x1="720" y1="400" x2="655" y2="438" stroke="#1ea88e" stroke-width="1" class="edge"/>
<line x1="573" y1="517" x2="633" y2="597" stroke="#1ea88e" stroke-width="1" class="edge"/>
<line x1="635" y1="85" x2="681" y2="64" stroke="#1ea88e" stroke-width="1" class="edge"/>
<line x1="890" y1="273" x2="841" y2="282" stroke="#e8725a" stroke-width="1" class="edge"/>
<line x1="573" y1="283" x2="562" y2="332" stroke="#1ea88e" stroke-width="1" class="edge"/>
<line x1="512" y1="319" x2="536" y2="248" stroke="#1ea88e" stroke-width="1" class="edge"/>
<line x1="643" y1="288" x2="713" y2="316" stroke="#1ea88e" stroke-width="1" class="edge"/>
<line x1="643" y1="288" x2="550" y2="323" stroke="#1ea88e" stroke-width="1" class="edge"/>
<line x1="573" y1="517" x2="566" y2="392" stroke="#1ea88e" stroke-width="1" class="edge"/>
<line x1="893" y1="491" x2="927" y2="528" stroke="#5b8def" stroke-width="1" class="edge"/>
<line x1="668" y1="699" x2="644" y2="743" stroke="#f0a030" stroke-width="1" class="edge"/>
<line x1="635" y1="85" x2="561" y2="77" stroke="#1ea88e" stroke-width="1" class="edge"/>
<line x1="890" y1="273" x2="820" y2="299" stroke="#e8725a" stroke-width="1" class="edge"/>
<line x1="699" y1="468" x2="708" y2="517" stroke="#1ea88e" stroke-width="1" class="edge"/>
<line x1="409" y1="619" x2="418" y2="570" stroke="#9b59b6" stroke-width="1" class="edge"/>
<line x1="315" y1="344" x2="270" y2="322" stroke="#1ea88e" stroke-width="1" class="edge"/>
<line x1="720" y1="400" x2="677" y2="310" stroke="#1ea88e" stroke-width="1" class="edge"/>
<line x1="573" y1="283" x2="640" y2="317" stroke="#1ea88e" stroke-width="1" class="edge"/>
<line x1="345" y1="588" x2="325" y2="634" stroke="#9b59b6" stroke-width="1" class="edge"/>
<line x1="310" y1="273" x2="335" y2="230" stroke="#1ea88e" stroke-width="1" class="edge"/>
<line x1="506" y1="125" x2="472" y2="89" stroke="#1ea88e" stroke-width="1" class="edge"/>
<line x1="791" y1="181" x2="834" y2="207" stroke="#e8725a" stroke-width="1" class="edge"/>
<line x1="877" y1="560" x2="865" y2="609" stroke="#5b8def" stroke-width="1" class="edge"/>
<line x1="600" y1="720" x2="650" y2="714" stroke="#f0a030" stroke-width="1" class="edge"/>
<line x1="345" y1="588" x2="420" y2="583" stroke="#9b59b6" stroke-width="1" class="edge"/>
<line x1="310" y1="273" x2="242" y2="305" stroke="#1ea88e" stroke-width="1" class="edge"/>
<line x1="512" y1="319" x2="463" y2="232" stroke="#1ea88e" stroke-width="1" class="edge"/>
<line x1="720" y1="400" x2="811" y2="486" stroke="#1ea88e" stroke-width="1" class="edge"/>
<line x1="699" y1="468" x2="752" y2="520" stroke="#1ea88e" stroke-width="1" class="edge"/>
<line x1="481" y1="383" x2="410" y2="360" stroke="#1ea88e" stroke-width="1" class="edge"/>
<line x1="506" y1="125" x2="518" y2="51" stroke="#1ea88e" stroke-width="1" class="edge"/>
<line x1="791" y1="181" x2="860" y2="211" stroke="#e8725a" stroke-width="1" class="edge"/>
<line x1="481" y1="383" x2="389" y2="345" stroke="#1ea88e" stroke-width="1" class="edge"/>
<line x1="643" y1="512" x2="624" y2="439" stroke="#1ea88e" stroke-width="1" class="edge"/>
<line x1="345" y1="588" x2="267" y2="650" stroke="#9b59b6" stroke-width="1" class="edge"/>
<line x1="310" y1="273" x2="331" y2="371" stroke="#1ea88e" stroke-width="1" class="edge"/>
<line x1="409" y1="619" x2="435" y2="689" stroke="#9b59b6" stroke-width="1" class="edge"/>
<line x1="315" y1="344" x2="382" y2="310" stroke="#1ea88e" stroke-width="1" class="edge"/>
<line x1="512" y1="319" x2="478" y2="439" stroke="#1ea88e" stroke-width="1" class="edge"/>
<line x1="512" y1="481" x2="484" y2="411" stroke="#1ea88e" stroke-width="1" class="edge"/>
<line x1="877" y1="560" x2="862" y2="487" stroke="#5b8def" stroke-width="1" class="edge"/>
<line x1="600" y1="720" x2="629" y2="651" stroke="#f0a030" stroke-width="1" class="edge"/>
<line x1="699" y1="332" x2="663" y2="298" stroke="#1ea88e" stroke-width="1" class="edge"/>
<line x1="573" y1="283" x2="610" y2="376" stroke="#1ea88e" stroke-width="1" class="edge"/>
<line x1="310" y1="527" x2="217" y2="564" stroke="#9b59b6" stroke-width="1" class="edge"/>
<line x1="345" y1="212" x2="364" y2="114" stroke="#1ea88e" stroke-width="1" class="edge"/>
<line x1="512" y1="481" x2="429" y2="538" stroke="#1ea88e" stroke-width="1" class="edge"/>
<line x1="643" y1="288" x2="763" y2="253" stroke="#1ea88e" stroke-width="1" class="edge"/>
<line x1="893" y1="491" x2="829" y2="531" stroke="#5b8def" stroke-width="1" class="edge"/>
<line x1="668" y1="699" x2="653" y2="625" stroke="#f0a030" stroke-width="1" class="edge"/>
<line x1="720" y1="400" x2="574" y2="364" stroke="#1ea88e" stroke-width="1" class="edge"/>
<line x1="512" y1="319" x2="375" y2="382" stroke="#1ea88e" stroke-width="1" class="edge"/>
<line x1="635" y1="85" x2="638" y2="-15" stroke="#1ea88e" stroke-width="1" class="edge"/>
<line x1="890" y1="273" x2="844" y2="362" stroke="#e8725a" stroke-width="1" class="edge"/>
<line x1="573" y1="517" x2="445" y2="438" stroke="#1ea88e" stroke-width="1" class="edge"/>
<line x1="512" y1="319" x2="363" y2="226" stroke="#1ea88e" stroke-width="1" class="edge"/>
<line x1="592" y1="44" x2="308" y2="147" class="gap-edge"/>
<line x1="902" y1="227" x2="382" y2="310" class="gap-edge"/>
<line x1="304" y1="240" x2="828" y2="142" class="gap-edge"/>
<line x1="557" y1="11" x2="927" y2="528" class="gap-edge"/>
<line x1="241" y1="556" x2="313" y2="477" class="gap-edge"/>
<line x1="681" y1="64" x2="865" y2="609" class="gap-edge"/>
<line x1="927" y1="528" x2="364" y2="114" class="gap-edge"/>
<line x1="644" y1="743" x2="325" y2="634" class="gap-edge"/>
<line x1="561" y1="77" x2="533" y2="436" class="gap-edge"/>
<line x1="820" y1="299" x2="561" y2="77" class="gap-edge"/>
<line x1="418" y1="570" x2="550" y2="323" class="gap-edge"/>
<line x1="325" y1="634" x2="270" y2="322" class="gap-edge"/>
<line x1="834" y1="207" x2="382" y2="310" class="gap-edge"/>
<line x1="420" y1="583" x2="435" y2="689" class="gap-edge"/>
<line x1="518" y1="51" x2="752" y2="520" class="gap-edge"/>
<line x1="860" y1="211" x2="431" y2="378" class="gap-edge"/>
<line x1="331" y1="371" x2="518" y2="51" class="gap-edge"/>
<line x1="435" y1="689" x2="610" y2="376" class="gap-edge"/>
<line x1="217" y1="564" x2="610" y2="376" class="gap-edge"/>
<line x1="829" y1="531" x2="655" y2="438" class="gap-edge"/>
<line x1="638" y1="-15" x2="304" y2="240" class="gap-edge"/>
<circle cx="600" cy="200" r="40" fill="#1ea88e" fill-opacity="0.25" stroke="#1ea88e" stroke-width="2" filter="url(#glow)" class="domain-node"/>
<circle cx="600" cy="200" r="24" fill="url(#neuron-grad)"/>
<text x="600" y="204" text-anchor="middle" class="domain">AI for Science</text>
<circle cx="773" cy="300" r="40" fill="#e8725a" fill-opacity="0.25" stroke="#e8725a" stroke-width="2" filter="url(#glow)" class="domain-node"/>
<circle cx="773" cy="300" r="24" fill="url(#neuron-grad)"/>
<text x="773" y="304" text-anchor="middle" class="domain">AI for Science</text>
<circle cx="773" cy="500" r="36" fill="#5b8def" fill-opacity="0.25" stroke="#5b8def" stroke-width="2" filter="url(#glow)" class="domain-node"/>
<circle cx="773" cy="500" r="22" fill="url(#neuron-grad)"/>
<text x="773" y="504" text-anchor="middle" class="domain">Biosensor Design</text>
<circle cx="600" cy="600" r="36" fill="#f0a030" fill-opacity="0.25" stroke="#f0a030" stroke-width="2" filter="url(#glow)" class="domain-node"/>
<circle cx="600" cy="600" r="22" fill="url(#neuron-grad)"/>
<text x="600" y="604" text-anchor="middle" class="domain">Biosensor Design</text>
<circle cx="427" cy="500" r="42" fill="#9b59b6" fill-opacity="0.25" stroke="#9b59b6" stroke-width="2" filter="url(#glow)" class="domain-node"/>
<circle cx="427" cy="500" r="25" fill="url(#neuron-grad)"/>
<text x="427" y="504" text-anchor="middle" class="domain">Electrochemical Sensing</text>
<circle cx="427" cy="300" r="42" fill="#1ea88e" fill-opacity="0.25" stroke="#1ea88e" stroke-width="2" filter="url(#glow)" class="domain-node"/>
<circle cx="427" cy="300" r="25" fill="url(#neuron-grad)"/>
<text x="427" y="304" text-anchor="middle" class="domain">Electrochemical Sensing</text>
<circle cx="506" cy="125" r="14" fill="#1ea88e" fill-opacity="0.4" stroke="#1ea88e" stroke-width="1"/>
<text x="506" y="151" text-anchor="middle" class="subfield">AI-Driven Paper Generation</text>
<circle cx="791" cy="181" r="14" fill="#e8725a" fill-opacity="0.4" stroke="#e8725a" stroke-width="1"/>
<text x="791" y="207" text-anchor="middle" class="subfield">AI-Driven Paper Generation</text>
<circle cx="893" cy="491" r="14" fill="#5b8def" fill-opacity="0.4" stroke="#5b8def" stroke-width="1"/>
<text x="893" y="517" text-anchor="middle" class="subfield">Aptamer-based Sensors</text>
<circle cx="668" cy="699" r="14" fill="#f0a030" fill-opacity="0.4" stroke="#f0a030" stroke-width="1"/>
<text x="668" y="725" text-anchor="middle" class="subfield">Aptamer-based Sensors</text>
<circle cx="565" cy="85" r="14" fill="#1ea88e" fill-opacity="0.4" stroke="#1ea88e" stroke-width="1"/>
<text x="565" y="111" text-anchor="middle" class="subfield">Automated Experiment Design</text>
<circle cx="855" cy="212" r="14" fill="#e8725a" fill-opacity="0.4" stroke="#e8725a" stroke-width="1"/>
<text x="855" y="238" text-anchor="middle" class="subfield">Automated Experiment Design</text>
<circle cx="481" cy="383" r="12" fill="#1ea88e" fill-opacity="0.4" stroke="#1ea88e" stroke-width="1"/>
<text x="481" y="407" text-anchor="middle" class="subfield">Computer Science and AI</text>
<circle cx="512" cy="319" r="12" fill="#1ea88e" fill-opacity="0.4" stroke="#1ea88e" stroke-width="1"/>
<text x="512" y="343" text-anchor="middle" class="subfield">Condensed Matter Physics</text>
<circle cx="409" cy="619" r="14" fill="#9b59b6" fill-opacity="0.4" stroke="#9b59b6" stroke-width="1"/>
<text x="409" y="645" text-anchor="middle" class="subfield">Cyclic Voltammetry</text>
<circle cx="315" cy="344" r="14" fill="#1ea88e" fill-opacity="0.4" stroke="#1ea88e" stroke-width="1"/>
<text x="315" y="370" text-anchor="middle" class="subfield">Cyclic Voltammetry</text>
<circle cx="573" cy="283" r="12" fill="#1ea88e" fill-opacity="0.4" stroke="#1ea88e" stroke-width="1"/>
<text x="573" y="307" text-anchor="middle" class="subfield">Electrical Engineering</text>
<circle cx="345" cy="588" r="15" fill="#9b59b6" fill-opacity="0.4" stroke="#9b59b6" stroke-width="1"/>
<text x="345" y="615" text-anchor="middle" class="subfield">Electrical Impedance Tomograph</text>
<circle cx="310" cy="273" r="15" fill="#1ea88e" fill-opacity="0.4" stroke="#1ea88e" stroke-width="1"/>
<text x="310" y="300" text-anchor="middle" class="subfield">Electrical Impedance Tomograph</text>
<circle cx="643" cy="288" r="12" fill="#1ea88e" fill-opacity="0.4" stroke="#1ea88e" stroke-width="1"/>
<text x="643" y="312" text-anchor="middle" class="subfield">Energy Storage and Battery Tec</text>
<circle cx="699" cy="332" r="12" fill="#1ea88e" fill-opacity="0.4" stroke="#1ea88e" stroke-width="1"/>
<text x="699" y="356" text-anchor="middle" class="subfield">Finance and Economics</text>
<circle cx="310" cy="527" r="15" fill="#9b59b6" fill-opacity="0.4" stroke="#9b59b6" stroke-width="1"/>
<text x="310" y="554" text-anchor="middle" class="subfield">Impedance Spectroscopy (EIS)</text>
<circle cx="345" cy="212" r="15" fill="#1ea88e" fill-opacity="0.4" stroke="#1ea88e" stroke-width="1"/>
<text x="345" y="239" text-anchor="middle" class="subfield">Impedance Spectroscopy (EIS)</text>
<circle cx="720" cy="400" r="12" fill="#1ea88e" fill-opacity="0.4" stroke="#1ea88e" stroke-width="1"/>
<text x="720" y="424" text-anchor="middle" class="subfield">Materials Science</text>
<circle cx="699" cy="468" r="12" fill="#1ea88e" fill-opacity="0.4" stroke="#1ea88e" stroke-width="1"/>
<text x="699" y="492" text-anchor="middle" class="subfield">Mathematics and Physics</text>
<circle cx="877" cy="560" r="14" fill="#5b8def" fill-opacity="0.4" stroke="#5b8def" stroke-width="1"/>
<text x="877" y="586" text-anchor="middle" class="subfield">Microfluidic Integration</text>
<circle cx="600" cy="720" r="14" fill="#f0a030" fill-opacity="0.4" stroke="#f0a030" stroke-width="1"/>
<text x="600" y="746" text-anchor="middle" class="subfield">Microfluidic Integration</text>
<circle cx="635" cy="85" r="15" fill="#1ea88e" fill-opacity="0.4" stroke="#1ea88e" stroke-width="1"/>
<text x="635" y="112" text-anchor="middle" class="subfield">Neural Network Architectures</text>
<circle cx="890" cy="273" r="15" fill="#e8725a" fill-opacity="0.4" stroke="#e8725a" stroke-width="1"/>
<text x="890" y="300" text-anchor="middle" class="subfield">Neural Network Architectures</text>
<circle cx="643" cy="512" r="12" fill="#1ea88e" fill-opacity="0.4" stroke="#1ea88e" stroke-width="1"/>
<text x="643" y="536" text-anchor="middle" class="subfield">Neuroscience and Biomedical En</text>
<circle cx="573" cy="517" r="12" fill="#1ea88e" fill-opacity="0.4" stroke="#1ea88e" stroke-width="1"/>
<text x="573" y="541" text-anchor="middle" class="subfield">Physics</text>
<circle cx="512" cy="481" r="12" fill="#1ea88e" fill-opacity="0.4" stroke="#1ea88e" stroke-width="1"/>
<text x="512" y="505" text-anchor="middle" class="subfield">Specialized Physics</text>
<circle cx="613" cy="487" r="5" fill="#1ea88e" fill-opacity="0.6" class="thread-node"/>
<text x="622" y="490" class="thread">Accelerator and High-Ener</text>
<circle cx="602" cy="316" r="5" fill="#1ea88e" fill-opacity="0.6" class="thread-node"/>
<text x="611" y="319" class="thread">Advanced Battery Material</text>
<circle cx="533" cy="436" r="5" fill="#1ea88e" fill-opacity="0.6" class="thread-node"/>
<text x="542" y="439" class="thread">Atomic and Molecular Phys</text>
<circle cx="592" cy="44" r="6" fill="#1ea88e" fill-opacity="0.6" class="thread-node"/>
<text x="603" y="47" class="thread">Autonomous Lab Systems</text>
<circle cx="902" cy="227" r="7" fill="#e8725a" fill-opacity="0.6" class="thread-node"/>
<text x="914" y="230" class="thread">Autonomous Lab Systems</text>
<circle cx="313" cy="477" r="7" fill="#9b59b6" fill-opacity="0.6" class="thread-node"/>
<text x="325" y="480" class="thread">Battery State Estimation</text>
<circle cx="304" cy="240" r="6" fill="#1ea88e" fill-opacity="0.6" class="thread-node"/>
<text x="315" y="243" class="thread">Battery State Estimation</text>
<circle cx="557" cy="11" r="6" fill="#1ea88e" fill-opacity="0.6" class="thread-node"/>
<text x="567" y="14" class="thread">Bayesian Optimization</text>
<circle cx="828" cy="142" r="6" fill="#e8725a" fill-opacity="0.6" class="thread-node"/>
<text x="838" y="145" class="thread">Bayesian Optimization</text>
<circle cx="686" cy="539" r="5" fill="#1ea88e" fill-opacity="0.6" class="thread-node"/>
<text x="695" y="542" class="thread">Biomedical Signal Process</text>
<circle cx="487" cy="362" r="5" fill="#1ea88e" fill-opacity="0.6" class="thread-node"/>
<text x="496" y="365" class="thread">Charge and Stripe Order</text>
<circle cx="676" cy="424" r="5" fill="#1ea88e" fill-opacity="0.6" class="thread-node"/>
<text x="685" y="427" class="thread">Coated Conductors and Wir</text>
<circle cx="518" cy="466" r="5" fill="#1ea88e" fill-opacity="0.6" class="thread-node"/>
<text x="527" y="469" class="thread">Computational Electromagn</text>
<circle cx="431" cy="378" r="5" fill="#1ea88e" fill-opacity="0.6" class="thread-node"/>
<text x="440" y="381" class="thread">Computer Graphics and 3D </text>
<circle cx="241" cy="556" r="6" fill="#9b59b6" fill-opacity="0.6" class="thread-node"/>
<text x="251" y="559" class="thread">Corrosion Monitoring</text>
<circle cx="308" cy="147" r="6" fill="#1ea88e" fill-opacity="0.6" class="thread-node"/>
<text x="319" y="150" class="thread">Corrosion Monitoring</text>
<circle cx="655" cy="438" r="5" fill="#1ea88e" fill-opacity="0.6" class="thread-node"/>
<text x="664" y="441" class="thread">Crystal Structure and Syn</text>
<circle cx="633" cy="597" r="5" fill="#1ea88e" fill-opacity="0.6" class="thread-node"/>
<text x="642" y="600" class="thread">Data and Information Syst</text>
<circle cx="681" cy="64" r="7" fill="#1ea88e" fill-opacity="0.6" class="thread-node"/>
<text x="692" y="67" class="thread">Diffusion Models for Simu</text>
<circle cx="841" cy="282" r="7" fill="#e8725a" fill-opacity="0.6" class="thread-node"/>
<text x="852" y="285" class="thread">Diffusion Models for Simu</text>
<circle cx="562" cy="332" r="5" fill="#1ea88e" fill-opacity="0.6" class="thread-node"/>
<text x="571" y="335" class="thread">Electrical Machines and M</text>
<circle cx="536" cy="248" r="5" fill="#1ea88e" fill-opacity="0.6" class="thread-node"/>
<text x="545" y="251" class="thread">Electronic Structure and </text>
<circle cx="713" cy="316" r="5" fill="#1ea88e" fill-opacity="0.6" class="thread-node"/>
<text x="722" y="319" class="thread">Energy Storage Materials</text>
<circle cx="550" cy="323" r="5" fill="#1ea88e" fill-opacity="0.6" class="thread-node"/>
<text x="559" y="326" class="thread">Energy Systems Integratio</text>
<circle cx="566" cy="392" r="5" fill="#1ea88e" fill-opacity="0.6" class="thread-node"/>
<text x="575" y="395" class="thread">Experimental Techniques a</text>
<circle cx="927" cy="528" r="6" fill="#5b8def" fill-opacity="0.6" class="thread-node"/>
<text x="937" y="531" class="thread">Glucose Monitoring</text>
<circle cx="644" cy="743" r="7" fill="#f0a030" fill-opacity="0.6" class="thread-node"/>
<text x="655" y="746" class="thread">Glucose Monitoring</text>
<circle cx="561" cy="77" r="7" fill="#1ea88e" fill-opacity="0.6" class="thread-node"/>
<text x="572" y="80" class="thread">Graph Neural Networks for</text>
<circle cx="820" cy="299" r="7" fill="#e8725a" fill-opacity="0.6" class="thread-node"/>
<text x="831" y="302" class="thread">Graph Neural Networks for</text>
<circle cx="708" cy="517" r="5" fill="#1ea88e" fill-opacity="0.6" class="thread-node"/>
<text x="717" y="520" class="thread">Gravitational Physics</text>
<circle cx="418" cy="570" r="6" fill="#9b59b6" fill-opacity="0.6" class="thread-node"/>
<text x="429" y="573" class="thread">Heavy Metal Analysis</text>
<circle cx="270" cy="322" r="7" fill="#1ea88e" fill-opacity="0.6" class="thread-node"/>
<text x="282" y="325" class="thread">Heavy Metal Analysis</text>
<circle cx="677" cy="310" r="5" fill="#1ea88e" fill-opacity="0.6" class="thread-node"/>
<text x="686" y="313" class="thread">High-Pressure Superconduc</text>
<circle cx="640" cy="317" r="5" fill="#1ea88e" fill-opacity="0.6" class="thread-node"/>
<text x="649" y="320" class="thread">Industrial Heating and En</text>
<circle cx="325" cy="634" r="6" fill="#9b59b6" fill-opacity="0.6" class="thread-node"/>
<text x="334" y="637" class="thread">Industrial Process Tomogr</text>
<circle cx="335" cy="230" r="7" fill="#1ea88e" fill-opacity="0.6" class="thread-node"/>
<text x="346" y="233" class="thread">Industrial Process Tomogr</text>
<circle cx="472" cy="89" r="6" fill="#1ea88e" fill-opacity="0.6" class="thread-node"/>
<text x="482" y="92" class="thread">LLM Literature Synthesis</text>
<circle cx="834" cy="207" r="6" fill="#e8725a" fill-opacity="0.6" class="thread-node"/>
<text x="844" y="210" class="thread">LLM Literature Synthesis</text>
<circle cx="865" cy="609" r="7" fill="#5b8def" fill-opacity="0.6" class="thread-node"/>
<text x="876" y="612" class="thread">Lab-on-Chip Platforms</text>
<circle cx="650" cy="714" r="7" fill="#f0a030" fill-opacity="0.6" class="thread-node"/>
<text x="661" y="717" class="thread">Lab-on-Chip Platforms</text>
<circle cx="420" cy="583" r="7" fill="#9b59b6" fill-opacity="0.6" class="thread-node"/>
<text x="431" y="586" class="thread">Lung Ventilation Imaging</text>
<circle cx="242" cy="305" r="6" fill="#1ea88e" fill-opacity="0.6" class="thread-node"/>
<text x="252" y="308" class="thread">Lung Ventilation Imaging</text>
<circle cx="463" cy="232" r="5" fill="#1ea88e" fill-opacity="0.6" class="thread-node"/>
<text x="472" y="235" class="thread">Magnetic and Spin Propert</text>
<circle cx="811" cy="486" r="5" fill="#1ea88e" fill-opacity="0.6" class="thread-node"/>
<text x="820" y="489" class="thread">Materials Properties and </text>
<circle cx="752" cy="520" r="5" fill="#1ea88e" fill-opacity="0.6" class="thread-node"/>
<text x="761" y="523" class="thread">Mathematical Structures a</text>
<circle cx="410" cy="360" r="5" fill="#1ea88e" fill-opacity="0.6" class="thread-node"/>
<text x="419" y="363" class="thread">Medical AI and Vision-Lan</text>
<circle cx="518" cy="51" r="7" fill="#1ea88e" fill-opacity="0.6" class="thread-node"/>
<text x="529" y="54" class="thread">Multi-Agent Research Deba</text>
<circle cx="860" cy="211" r="7" fill="#e8725a" fill-opacity="0.6" class="thread-node"/>
<text x="871" y="214" class="thread">Multi-Agent Research Deba</text>
<circle cx="389" cy="345" r="5" fill="#1ea88e" fill-opacity="0.6" class="thread-node"/>
<text x="398" y="348" class="thread">Natural Language Processi</text>
<circle cx="624" cy="439" r="5" fill="#1ea88e" fill-opacity="0.6" class="thread-node"/>
<text x="633" y="442" class="thread">Neural Engineering</text>
<circle cx="267" cy="650" r="7" fill="#9b59b6" fill-opacity="0.6" class="thread-node"/>
<text x="277" y="653" class="thread">Neural Reconstruction</text>
<circle cx="331" cy="371" r="7" fill="#1ea88e" fill-opacity="0.6" class="thread-node"/>
<text x="342" y="374" class="thread">Neural Reconstruction</text>
<circle cx="435" cy="689" r="6" fill="#9b59b6" fill-opacity="0.6" class="thread-node"/>
<text x="445" y="692" class="thread">Neurotransmitter Detectio</text>
<circle cx="382" cy="310" r="7" fill="#1ea88e" fill-opacity="0.6" class="thread-node"/>
<text x="393" y="313" class="thread">Neurotransmitter Detectio</text>
<circle cx="478" cy="439" r="5" fill="#1ea88e" fill-opacity="0.6" class="thread-node"/>
<text x="487" y="442" class="thread">Novel Superconducting Sys</text>
<circle cx="484" cy="411" r="5" fill="#1ea88e" fill-opacity="0.6" class="thread-node"/>
<text x="493" y="414" class="thread">Particle Physics</text>
<circle cx="862" cy="487" r="7" fill="#5b8def" fill-opacity="0.6" class="thread-node"/>
<text x="873" y="490" class="thread">Point-of-Care Diagnostics</text>
<circle cx="629" cy="651" r="7" fill="#f0a030" fill-opacity="0.6" class="thread-node"/>
<text x="641" y="654" class="thread">Point-of-Care Diagnostics</text>
<circle cx="663" cy="298" r="5" fill="#1ea88e" fill-opacity="0.6" class="thread-node"/>
<text x="672" y="301" class="thread">Portfolio Theory and Risk</text>
<circle cx="610" cy="376" r="5" fill="#1ea88e" fill-opacity="0.6" class="thread-node"/>
<text x="619" y="379" class="thread">Power Systems and Grid Ap</text>
<circle cx="217" cy="564" r="7" fill="#9b59b6" fill-opacity="0.6" class="thread-node"/>
<text x="228" y="567" class="thread">Protein Binding Detection</text>
<circle cx="364" cy="114" r="6" fill="#1ea88e" fill-opacity="0.6" class="thread-node"/>
<text x="374" y="117" class="thread">Protein Binding Detection</text>
<circle cx="429" cy="538" r="5" fill="#1ea88e" fill-opacity="0.6" class="thread-node"/>
<text x="438" y="541" class="thread">Quantum Transport and Int</text>
<circle cx="763" cy="253" r="5" fill="#1ea88e" fill-opacity="0.6" class="thread-node"/>
<text x="772" y="256" class="thread">Redox Flow Batteries</text>
<circle cx="829" cy="531" r="7" fill="#5b8def" fill-opacity="0.6" class="thread-node"/>
<text x="840" y="534" class="thread">SARS-CoV-2 Detection</text>
<circle cx="653" cy="625" r="6" fill="#f0a030" fill-opacity="0.6" class="thread-node"/>
<text x="663" y="628" class="thread">SARS-CoV-2 Detection</text>
<circle cx="574" cy="364" r="5" fill="#1ea88e" fill-opacity="0.6" class="thread-node"/>
<text x="583" y="367" class="thread">Superconducting Devices a</text>
<circle cx="375" cy="382" r="5" fill="#1ea88e" fill-opacity="0.6" class="thread-node"/>
<text x="384" y="385" class="thread">Topological Superconducti</text>
<circle cx="638" cy="-15" r="7" fill="#1ea88e" fill-opacity="0.6" class="thread-node"/>
<text x="649" y="-12" class="thread">Transformer Probing</text>
<circle cx="844" cy="362" r="6" fill="#e8725a" fill-opacity="0.6" class="thread-node"/>
<text x="854" y="365" class="thread">Transformer Probing</text>
<circle cx="445" cy="438" r="5" fill="#1ea88e" fill-opacity="0.6" class="thread-node"/>
<text x="454" y="441" class="thread">Transportation Applicatio</text>
<circle cx="363" cy="226" r="5" fill="#1ea88e" fill-opacity="0.6" class="thread-node"/>
<text x="372" y="229" class="thread">Vortex Physics and Transp</text>
<circle cx="584" cy="54" r="2" fill="#1ea88e" class="particle" style="animation-delay: 0.8s"/>
<circle cx="594" cy="27" r="2" fill="#1ea88e" class="particle" style="animation-delay: 2.7s"/>
<circle cx="583" cy="40" r="2" fill="#1ea88e" class="particle" style="animation-delay: 0.4s"/>
<circle cx="608" cy="29" r="2" fill="#1ea88e" class="particle" style="animation-delay: 2.1s"/>
<circle cx="921" cy="216" r="2" fill="#e8725a" class="particle" style="animation-delay: 3.1s"/>
<circle cx="904" cy="232" r="2" fill="#e8725a" class="particle" style="animation-delay: 0.6s"/>
<circle cx="903" cy="225" r="2" fill="#e8725a" class="particle" style="animation-delay: 3.9s"/>
<circle cx="919" cy="244" r="2" fill="#e8725a" class="particle" style="animation-delay: 2.0s"/>
<circle cx="918" cy="210" r="2" fill="#e8725a" class="particle" style="animation-delay: 3.0s"/>
<circle cx="317" cy="463" r="2" fill="#9b59b6" class="particle" style="animation-delay: 0.0s"/>
<circle cx="328" cy="482" r="2" fill="#9b59b6" class="particle" style="animation-delay: 2.6s"/>
<circle cx="330" cy="462" r="2" fill="#9b59b6" class="particle" style="animation-delay: 0.6s"/>
<circle cx="322" cy="493" r="2" fill="#9b59b6" class="particle" style="animation-delay: 1.5s"/>
<circle cx="318" cy="475" r="2" fill="#9b59b6" class="particle" style="animation-delay: 2.8s"/>
<circle cx="286" cy="246" r="2" fill="#1ea88e" class="particle" style="animation-delay: 3.2s"/>
<circle cx="303" cy="234" r="2" fill="#1ea88e" class="particle" style="animation-delay: 3.1s"/>
<circle cx="306" cy="255" r="2" fill="#1ea88e" class="particle" style="animation-delay: 2.0s"/>
<circle cx="311" cy="251" r="2" fill="#1ea88e" class="particle" style="animation-delay: 3.7s"/>
<circle cx="321" cy="225" r="2" fill="#1ea88e" class="particle" style="animation-delay: 2.9s"/>
<circle cx="556" cy="8" r="2" fill="#1ea88e" class="particle" style="animation-delay: 1.3s"/>
<circle cx="545" cy="-0" r="2" fill="#1ea88e" class="particle" style="animation-delay: 0.9s"/>
<circle cx="547" cy="-2" r="2" fill="#1ea88e" class="particle" style="animation-delay: 0.2s"/>
<circle cx="551" cy="11" r="2" fill="#1ea88e" class="particle" style="animation-delay: 1.0s"/>
<circle cx="822" cy="148" r="2" fill="#e8725a" class="particle" style="animation-delay: 1.9s"/>
<circle cx="826" cy="129" r="2" fill="#e8725a" class="particle" style="animation-delay: 0.0s"/>
<circle cx="833" cy="148" r="2" fill="#e8725a" class="particle" style="animation-delay: 1.6s"/>
<circle cx="827" cy="136" r="2" fill="#e8725a" class="particle" style="animation-delay: 0.1s"/>
<circle cx="226" cy="536" r="2" fill="#9b59b6" class="particle" style="animation-delay: 0.8s"/>
<circle cx="242" cy="571" r="2" fill="#9b59b6" class="particle" style="animation-delay: 0.1s"/>
<circle cx="221" cy="554" r="2" fill="#9b59b6" class="particle" style="animation-delay: 2.5s"/>
<circle cx="230" cy="554" r="2" fill="#9b59b6" class="particle" style="animation-delay: 0.4s"/>
<circle cx="298" cy="144" r="2" fill="#1ea88e" class="particle" style="animation-delay: 1.1s"/>
<circle cx="328" cy="152" r="2" fill="#1ea88e" class="particle" style="animation-delay: 2.7s"/>
<circle cx="296" cy="136" r="2" fill="#1ea88e" class="particle" style="animation-delay: 1.1s"/>
<circle cx="299" cy="136" r="2" fill="#1ea88e" class="particle" style="animation-delay: 1.7s"/>
<circle cx="310" cy="160" r="2" fill="#1ea88e" class="particle" style="animation-delay: 2.6s"/>
<circle cx="665" cy="47" r="2" fill="#1ea88e" class="particle" style="animation-delay: 1.8s"/>
<circle cx="700" cy="84" r="2" fill="#1ea88e" class="particle" style="animation-delay: 1.1s"/>
<circle cx="686" cy="67" r="2" fill="#1ea88e" class="particle" style="animation-delay: 1.9s"/>
<circle cx="685" cy="79" r="2" fill="#1ea88e" class="particle" style="animation-delay: 0.3s"/>
<circle cx="692" cy="69" r="2" fill="#1ea88e" class="particle" style="animation-delay: 3.0s"/>
<circle cx="840" cy="279" r="2" fill="#e8725a" class="particle" style="animation-delay: 1.3s"/>
<circle cx="854" cy="292" r="2" fill="#e8725a" class="particle" style="animation-delay: 0.4s"/>
<circle cx="840" cy="289" r="2" fill="#e8725a" class="particle" style="animation-delay: 3.5s"/>
<circle cx="859" cy="279" r="2" fill="#e8725a" class="particle" style="animation-delay: 3.3s"/>
<circle cx="858" cy="281" r="2" fill="#e8725a" class="particle" style="animation-delay: 3.5s"/>
<circle cx="945" cy="529" r="2" fill="#5b8def" class="particle" style="animation-delay: 1.9s"/>
<circle cx="938" cy="517" r="2" fill="#5b8def" class="particle" style="animation-delay: 1.8s"/>
<circle cx="943" cy="522" r="2" fill="#5b8def" class="particle" style="animation-delay: 0.9s"/>
<circle cx="918" cy="538" r="2" fill="#5b8def" class="particle" style="animation-delay: 0.7s"/>
<circle cx="649" cy="751" r="2" fill="#f0a030" class="particle" style="animation-delay: 3.8s"/>
<circle cx="631" cy="733" r="2" fill="#f0a030" class="particle" style="animation-delay: 2.9s"/>
<circle cx="639" cy="763" r="2" fill="#f0a030" class="particle" style="animation-delay: 0.8s"/>
<circle cx="640" cy="726" r="2" fill="#f0a030" class="particle" style="animation-delay: 1.9s"/>
<circle cx="646" cy="745" r="2" fill="#f0a030" class="particle" style="animation-delay: 1.9s"/>
<circle cx="554" cy="83" r="2" fill="#1ea88e" class="particle" style="animation-delay: 3.6s"/>
<circle cx="560" cy="71" r="2" fill="#1ea88e" class="particle" style="animation-delay: 3.2s"/>
<circle cx="548" cy="60" r="2" fill="#1ea88e" class="particle" style="animation-delay: 0.8s"/>
<circle cx="577" cy="65" r="2" fill="#1ea88e" class="particle" style="animation-delay: 0.8s"/>
<circle cx="561" cy="84" r="2" fill="#1ea88e" class="particle" style="animation-delay: 3.6s"/>
<circle cx="835" cy="307" r="2" fill="#e8725a" class="particle" style="animation-delay: 0.8s"/>
<circle cx="807" cy="316" r="2" fill="#e8725a" class="particle" style="animation-delay: 2.7s"/>
<circle cx="826" cy="302" r="2" fill="#e8725a" class="particle" style="animation-delay: 1.6s"/>
<circle cx="824" cy="298" r="2" fill="#e8725a" class="particle" style="animation-delay: 2.8s"/>
<circle cx="806" cy="283" r="2" fill="#e8725a" class="particle" style="animation-delay: 2.0s"/>
<circle cx="418" cy="584" r="2" fill="#9b59b6" class="particle" style="animation-delay: 1.2s"/>
<circle cx="403" cy="575" r="2" fill="#9b59b6" class="particle" style="animation-delay: 3.7s"/>
<circle cx="435" cy="551" r="2" fill="#9b59b6" class="particle" style="animation-delay: 1.2s"/>
<circle cx="431" cy="583" r="2" fill="#9b59b6" class="particle" style="animation-delay: 2.9s"/>
<circle cx="437" cy="573" r="2" fill="#9b59b6" class="particle" style="animation-delay: 1.9s"/>
<circle cx="290" cy="318" r="2" fill="#1ea88e" class="particle" style="animation-delay: 0.5s"/>
<circle cx="264" cy="309" r="2" fill="#1ea88e" class="particle" style="animation-delay: 2.2s"/>
<circle cx="260" cy="326" r="2" fill="#1ea88e" class="particle" style="animation-delay: 3.1s"/>
<circle cx="267" cy="303" r="2" fill="#1ea88e" class="particle" style="animation-delay: 3.7s"/>
<circle cx="275" cy="308" r="2" fill="#1ea88e" class="particle" style="animation-delay: 1.4s"/>
<circle cx="332" cy="616" r="2" fill="#9b59b6" class="particle" style="animation-delay: 0.1s"/>
<circle cx="323" cy="618" r="2" fill="#9b59b6" class="particle" style="animation-delay: 0.1s"/>
<circle cx="340" cy="633" r="2" fill="#9b59b6" class="particle" style="animation-delay: 1.7s"/>
<circle cx="353" cy="232" r="2" fill="#1ea88e" class="particle" style="animation-delay: 0.5s"/>
<circle cx="327" cy="243" r="2" fill="#1ea88e" class="particle" style="animation-delay: 0.0s"/>
<circle cx="351" cy="240" r="2" fill="#1ea88e" class="particle" style="animation-delay: 0.9s"/>
<circle cx="331" cy="232" r="2" fill="#1ea88e" class="particle" style="animation-delay: 3.0s"/>
<circle cx="353" cy="239" r="2" fill="#1ea88e" class="particle" style="animation-delay: 1.3s"/>
<circle cx="454" cy="101" r="2" fill="#1ea88e" class="particle" style="animation-delay: 1.0s"/>
<circle cx="491" cy="70" r="2" fill="#1ea88e" class="particle" style="animation-delay: 3.2s"/>
<circle cx="464" cy="89" r="2" fill="#1ea88e" class="particle" style="animation-delay: 1.7s"/>
<circle cx="478" cy="87" r="2" fill="#1ea88e" class="particle" style="animation-delay: 1.8s"/>
<circle cx="826" cy="195" r="2" fill="#e8725a" class="particle" style="animation-delay: 3.3s"/>
<circle cx="826" cy="189" r="2" fill="#e8725a" class="particle" style="animation-delay: 0.9s"/>
<circle cx="829" cy="223" r="2" fill="#e8725a" class="particle" style="animation-delay: 2.0s"/>
<circle cx="851" cy="224" r="2" fill="#e8725a" class="particle" style="animation-delay: 3.8s"/>
<circle cx="876" cy="627" r="2" fill="#5b8def" class="particle" style="animation-delay: 1.8s"/>
<circle cx="884" cy="626" r="2" fill="#5b8def" class="particle" style="animation-delay: 2.1s"/>
<circle cx="863" cy="609" r="2" fill="#5b8def" class="particle" style="animation-delay: 1.4s"/>
<circle cx="851" cy="612" r="2" fill="#5b8def" class="particle" style="animation-delay: 1.4s"/>
<circle cx="853" cy="625" r="2" fill="#5b8def" class="particle" style="animation-delay: 1.0s"/>
<circle cx="659" cy="702" r="2" fill="#f0a030" class="particle" style="animation-delay: 1.0s"/>
<circle cx="661" cy="730" r="2" fill="#f0a030" class="particle" style="animation-delay: 3.0s"/>
<circle cx="655" cy="697" r="2" fill="#f0a030" class="particle" style="animation-delay: 3.0s"/>
<circle cx="652" cy="710" r="2" fill="#f0a030" class="particle" style="animation-delay: 0.5s"/>
<circle cx="640" cy="711" r="2" fill="#f0a030" class="particle" style="animation-delay: 2.2s"/>
<circle cx="435" cy="588" r="2" fill="#9b59b6" class="particle" style="animation-delay: 1.2s"/>
<circle cx="421" cy="595" r="2" fill="#9b59b6" class="particle" style="animation-delay: 3.0s"/>
<circle cx="437" cy="579" r="2" fill="#9b59b6" class="particle" style="animation-delay: 3.8s"/>
<circle cx="410" cy="590" r="2" fill="#9b59b6" class="particle" style="animation-delay: 0.8s"/>
<circle cx="418" cy="576" r="2" fill="#9b59b6" class="particle" style="animation-delay: 3.5s"/>
<circle cx="226" cy="288" r="2" fill="#1ea88e" class="particle" style="animation-delay: 4.0s"/>
<circle cx="223" cy="286" r="2" fill="#1ea88e" class="particle" style="animation-delay: 1.2s"/>
<circle cx="243" cy="320" r="2" fill="#1ea88e" class="particle" style="animation-delay: 1.7s"/>
<circle cx="256" cy="304" r="2" fill="#1ea88e" class="particle" style="animation-delay: 1.9s"/>
<circle cx="235" cy="318" r="2" fill="#1ea88e" class="particle" style="animation-delay: 1.8s"/>
<circle cx="534" cy="68" r="2" fill="#1ea88e" class="particle" style="animation-delay: 3.6s"/>
<circle cx="508" cy="52" r="2" fill="#1ea88e" class="particle" style="animation-delay: 0.5s"/>
<circle cx="522" cy="33" r="2" fill="#1ea88e" class="particle" style="animation-delay: 2.2s"/>
<circle cx="533" cy="51" r="2" fill="#1ea88e" class="particle" style="animation-delay: 3.3s"/>
<circle cx="507" cy="56" r="2" fill="#1ea88e" class="particle" style="animation-delay: 0.6s"/>
<circle cx="842" cy="199" r="2" fill="#e8725a" class="particle" style="animation-delay: 1.0s"/>
<circle cx="873" cy="222" r="2" fill="#e8725a" class="particle" style="animation-delay: 1.9s"/>
<circle cx="875" cy="230" r="2" fill="#e8725a" class="particle" style="animation-delay: 2.6s"/>
<circle cx="871" cy="206" r="2" fill="#e8725a" class="particle" style="animation-delay: 2.7s"/>
<circle cx="873" cy="198" r="2" fill="#e8725a" class="particle" style="animation-delay: 1.5s"/>
<circle cx="263" cy="656" r="2" fill="#9b59b6" class="particle" style="animation-delay: 1.1s"/>
<circle cx="270" cy="642" r="2" fill="#9b59b6" class="particle" style="animation-delay: 2.2s"/>
<circle cx="266" cy="631" r="2" fill="#9b59b6" class="particle" style="animation-delay: 3.9s"/>
<circle cx="278" cy="662" r="2" fill="#9b59b6" class="particle" style="animation-delay: 0.6s"/>
<circle cx="262" cy="669" r="2" fill="#9b59b6" class="particle" style="animation-delay: 1.8s"/>
<circle cx="336" cy="374" r="2" fill="#1ea88e" class="particle" style="animation-delay: 1.3s"/>
<circle cx="312" cy="389" r="2" fill="#1ea88e" class="particle" style="animation-delay: 3.8s"/>
<circle cx="340" cy="387" r="2" fill="#1ea88e" class="particle" style="animation-delay: 0.8s"/>
<circle cx="348" cy="368" r="2" fill="#1ea88e" class="particle" style="animation-delay: 0.1s"/>
<circle cx="347" cy="354" r="2" fill="#1ea88e" class="particle" style="animation-delay: 2.4s"/>
<circle cx="418" cy="708" r="2" fill="#9b59b6" class="particle" style="animation-delay: 3.8s"/>
<circle cx="420" cy="686" r="2" fill="#9b59b6" class="particle" style="animation-delay: 2.3s"/>
<circle cx="443" cy="704" r="2" fill="#9b59b6" class="particle" style="animation-delay: 2.7s"/>
<circle cx="446" cy="686" r="2" fill="#9b59b6" class="particle" style="animation-delay: 0.9s"/>
<circle cx="391" cy="326" r="2" fill="#1ea88e" class="particle" style="animation-delay: 3.6s"/>
<circle cx="388" cy="298" r="2" fill="#1ea88e" class="particle" style="animation-delay: 2.7s"/>
<circle cx="370" cy="299" r="2" fill="#1ea88e" class="particle" style="animation-delay: 3.4s"/>
<circle cx="400" cy="325" r="2" fill="#1ea88e" class="particle" style="animation-delay: 1.7s"/>
<circle cx="400" cy="299" r="2" fill="#1ea88e" class="particle" style="animation-delay: 2.1s"/>
<circle cx="877" cy="504" r="2" fill="#5b8def" class="particle" style="animation-delay: 2.4s"/>
<circle cx="845" cy="497" r="2" fill="#5b8def" class="particle" style="animation-delay: 0.7s"/>
<circle cx="854" cy="476" r="2" fill="#5b8def" class="particle" style="animation-delay: 1.4s"/>
<circle cx="852" cy="479" r="2" fill="#5b8def" class="particle" style="animation-delay: 1.1s"/>
<circle cx="860" cy="470" r="2" fill="#5b8def" class="particle" style="animation-delay: 2.8s"/>
<circle cx="648" cy="650" r="2" fill="#f0a030" class="particle" style="animation-delay: 3.4s"/>
<circle cx="626" cy="649" r="2" fill="#f0a030" class="particle" style="animation-delay: 0.2s"/>
<circle cx="639" cy="657" r="2" fill="#f0a030" class="particle" style="animation-delay: 0.6s"/>
<circle cx="647" cy="640" r="2" fill="#f0a030" class="particle" style="animation-delay: 2.8s"/>
<circle cx="615" cy="654" r="2" fill="#f0a030" class="particle" style="animation-delay: 3.5s"/>
<circle cx="228" cy="550" r="2" fill="#9b59b6" class="particle" style="animation-delay: 2.9s"/>
<circle cx="219" cy="559" r="2" fill="#9b59b6" class="particle" style="animation-delay: 2.2s"/>
<circle cx="224" cy="575" r="2" fill="#9b59b6" class="particle" style="animation-delay: 2.5s"/>
<circle cx="229" cy="569" r="2" fill="#9b59b6" class="particle" style="animation-delay: 0.5s"/>
<circle cx="219" cy="556" r="2" fill="#9b59b6" class="particle" style="animation-delay: 3.0s"/>
<circle cx="362" cy="95" r="2" fill="#1ea88e" class="particle" style="animation-delay: 0.4s"/>
<circle cx="350" cy="99" r="2" fill="#1ea88e" class="particle" style="animation-delay: 2.3s"/>
<circle cx="375" cy="133" r="2" fill="#1ea88e" class="particle" style="animation-delay: 0.3s"/>
<circle cx="837" cy="528" r="2" fill="#5b8def" class="particle" style="animation-delay: 2.9s"/>
<circle cx="839" cy="517" r="2" fill="#5b8def" class="particle" style="animation-delay: 2.8s"/>
<circle cx="825" cy="537" r="2" fill="#5b8def" class="particle" style="animation-delay: 1.2s"/>
<circle cx="835" cy="544" r="2" fill="#5b8def" class="particle" style="animation-delay: 1.3s"/>
<circle cx="833" cy="526" r="2" fill="#5b8def" class="particle" style="animation-delay: 3.5s"/>
<circle cx="651" cy="627" r="2" fill="#f0a030" class="particle" style="animation-delay: 2.0s"/>
<circle cx="638" cy="634" r="2" fill="#f0a030" class="particle" style="animation-delay: 1.4s"/>
<circle cx="670" cy="622" r="2" fill="#f0a030" class="particle" style="animation-delay: 2.3s"/>
<circle cx="657" cy="-30" r="2" fill="#1ea88e" class="particle" style="animation-delay: 1.5s"/>
<circle cx="636" cy="-4" r="2" fill="#1ea88e" class="particle" style="animation-delay: 4.0s"/>
<circle cx="635" cy="-22" r="2" fill="#1ea88e" class="particle" style="animation-delay: 3.6s"/>
<circle cx="651" cy="-17" r="2" fill="#1ea88e" class="particle" style="animation-delay: 3.6s"/>
<circle cx="652" cy="-8" r="2" fill="#1ea88e" class="particle" style="animation-delay: 0.0s"/>
<circle cx="827" cy="365" r="2" fill="#e8725a" class="particle" style="animation-delay: 0.8s"/>
<circle cx="841" cy="360" r="2" fill="#e8725a" class="particle" style="animation-delay: 3.2s"/>
<circle cx="849" cy="348" r="2" fill="#e8725a" class="particle" style="animation-delay: 3.3s"/>
<rect x="20" y="720" width="200" height="70" fill="#111" fill-opacity="0.8" rx="6"/>
<text x="30" y="738" fill="#fff" font-size="11" font-weight="bold">Legend</text>
<circle cx="40" cy="754" r="8" fill="#1ea88e" fill-opacity="0.4" stroke="#1ea88e"/>
<text x="55" y="758" fill="#aaa" font-size="10">Domain / Subfield / Thread</text>
<line x1="30" y1="772" x2="50" y2="772" stroke="#ff4444" stroke-dasharray="4,3"/>
<text x="55" y="776" fill="#aaa" font-size="10">Research Gap</text>
<text x="1180" y="30" text-anchor="end" fill="#666" font-size="11" font-family="monospace">535 papers | 168 topics</text>
</svg>