<svg xmlns="http://www.w3.org/2000/svg" id="agent-map" viewBox="0 0 800 700" width="100%" height="500">
<defs>
  <filter id="glow"><feGaussianBlur stdDeviation="4" result="b"/><feMerge><feMergeNode in="b"/><feMergeNode in="SourceGraphic"/></feMerge></filter>
  <marker id="arrow" viewBox="0 0 10 10" refX="10" refY="5" markerWidth="6" markerHeight="6" orient="auto-start-reverse"><path d="M 0 0 L 10 5 L 0 10 z" fill="#ffffff33"/></marker>
</defs>
<rect width="800" height="700" fill="#0a0a1a" rx="12"/>
<text x="400" y="30" text-anchor="middle" fill="#fff" font-size="16" font-family="system-ui" font-weight="bold">Research Debate Map: Electrical Impedance Tomography with Machine Learning</text>
<line x1="400" y1="100" x2="487" y2="112" stroke="#ffffff" stroke-opacity="0.08" stroke-width="1" marker-end="url(#arrow)"/>
<line x1="400" y1="100" x2="666" y2="273" stroke="#ffffff" stroke-opacity="0.08" stroke-width="1" marker-end="url(#arrow)"/>
<line x1="400" y1="100" x2="666" y2="427" stroke="#ffffff" stroke-opacity="0.08" stroke-width="1" marker-end="url(#arrow)"/>
<line x1="400" y1="100" x2="173" y2="497" stroke="#ffffff" stroke-opacity="0.08" stroke-width="1" marker-end="url(#arrow)"/>
<line x1="400" y1="100" x2="134" y2="427" stroke="#ffffff" stroke-opacity="0.08" stroke-width="1" marker-end="url(#arrow)"/>
<line x1="400" y1="100" x2="235" y2="148" stroke="#ffffff" stroke-opacity="0.08" stroke-width="1" marker-end="url(#arrow)"/>
<line x1="400" y1="100" x2="313" y2="112" stroke="#ffffff" stroke-opacity="0.08" stroke-width="1" marker-end="url(#arrow)"/>
<line x1="487" y1="112" x2="565" y2="148" stroke="#ffffff" stroke-opacity="0.08" stroke-width="1" marker-end="url(#arrow)"/>
<line x1="487" y1="112" x2="666" y2="273" stroke="#ffffff" stroke-opacity="0.08" stroke-width="1" marker-end="url(#arrow)"/>
<line x1="487" y1="112" x2="666" y2="427" stroke="#ffffff" stroke-opacity="0.08" stroke-width="1" marker-end="url(#arrow)"/>
<line x1="487" y1="112" x2="400" y2="600" stroke="#ffffff" stroke-opacity="0.08" stroke-width="1" marker-end="url(#arrow)"/>
<line x1="487" y1="112" x2="134" y2="427" stroke="#ffffff" stroke-opacity="0.08" stroke-width="1" marker-end="url(#arrow)"/>
<line x1="565" y1="148" x2="680" y2="350" stroke="#ffffff" stroke-opacity="0.08" stroke-width="1" marker-end="url(#arrow)"/>
<line x1="565" y1="148" x2="565" y2="552" stroke="#ffffff" stroke-opacity="0.08" stroke-width="1" marker-end="url(#arrow)"/>
<line x1="565" y1="148" x2="400" y2="600" stroke="#ffffff" stroke-opacity="0.08" stroke-width="1" marker-end="url(#arrow)"/>
<line x1="565" y1="148" x2="134" y2="427" stroke="#ffffff" stroke-opacity="0.08" stroke-width="1" marker-end="url(#arrow)"/>
<line x1="627" y1="203" x2="627" y2="497" stroke="#ffffff" stroke-opacity="0.08" stroke-width="1" marker-end="url(#arrow)"/>
<line x1="627" y1="203" x2="235" y2="552" stroke="#ffffff" stroke-opacity="0.08" stroke-width="1" marker-end="url(#arrow)"/>
<line x1="627" y1="203" x2="173" y2="203" stroke="#ffffff" stroke-opacity="0.08" stroke-width="1" marker-end="url(#arrow)"/>
<line x1="627" y1="203" x2="313" y2="112" stroke="#ffffff" stroke-opacity="0.08" stroke-width="1" marker-end="url(#arrow)"/>
<line x1="666" y1="273" x2="680" y2="350" stroke="#ffffff" stroke-opacity="0.08" stroke-width="1" marker-end="url(#arrow)"/>
<line x1="666" y1="273" x2="666" y2="427" stroke="#ffffff" stroke-opacity="0.08" stroke-width="1" marker-end="url(#arrow)"/>
<line x1="666" y1="273" x2="235" y2="552" stroke="#ffffff" stroke-opacity="0.08" stroke-width="1" marker-end="url(#arrow)"/>
<line x1="666" y1="273" x2="134" y2="427" stroke="#ffffff" stroke-opacity="0.08" stroke-width="1" marker-end="url(#arrow)"/>
<line x1="666" y1="273" x2="235" y2="148" stroke="#ffffff" stroke-opacity="0.08" stroke-width="1" marker-end="url(#arrow)"/>
<line x1="680" y1="350" x2="666" y2="427" stroke="#ffffff" stroke-opacity="0.08" stroke-width="1" marker-end="url(#arrow)"/>
<line x1="680" y1="350" x2="565" y2="552" stroke="#ffffff" stroke-opacity="0.08" stroke-width="1" marker-end="url(#arrow)"/>
<line x1="680" y1="350" x2="487" y2="588" stroke="#ffffff" stroke-opacity="0.08" stroke-width="1" marker-end="url(#arrow)"/>
<line x1="680" y1="350" x2="313" y2="588" stroke="#ffffff" stroke-opacity="0.08" stroke-width="1" marker-end="url(#arrow)"/>
<line x1="680" y1="350" x2="134" y2="427" stroke="#ffffff" stroke-opacity="0.08" stroke-width="1" marker-end="url(#arrow)"/>
<line x1="680" y1="350" x2="120" y2="350" stroke="#ffffff" stroke-opacity="0.08" stroke-width="1" marker-end="url(#arrow)"/>
<line x1="680" y1="350" x2="134" y2="273" stroke="#ffffff" stroke-opacity="0.08" stroke-width="1" marker-end="url(#arrow)"/>
<line x1="666" y1="427" x2="627" y2="497" stroke="#ffffff" stroke-opacity="0.08" stroke-width="1" marker-end="url(#arrow)"/>
<line x1="666" y1="427" x2="400" y2="600" stroke="#ffffff" stroke-opacity="0.08" stroke-width="1" marker-end="url(#arrow)"/>
<line x1="666" y1="427" x2="120" y2="350" stroke="#ffffff" stroke-opacity="0.08" stroke-width="1" marker-end="url(#arrow)"/>
<line x1="666" y1="427" x2="134" y2="273" stroke="#ffffff" stroke-opacity="0.08" stroke-width="1" marker-end="url(#arrow)"/>
<line x1="627" y1="497" x2="487" y2="588" stroke="#ffffff" stroke-opacity="0.08" stroke-width="1" marker-end="url(#arrow)"/>
<line x1="627" y1="497" x2="134" y2="273" stroke="#ffffff" stroke-opacity="0.08" stroke-width="1" marker-end="url(#arrow)"/>
<line x1="627" y1="497" x2="173" y2="203" stroke="#ffffff" stroke-opacity="0.08" stroke-width="1" marker-end="url(#arrow)"/>
<line x1="627" y1="497" x2="235" y2="148" stroke="#ffffff" stroke-opacity="0.08" stroke-width="1" marker-end="url(#arrow)"/>
<line x1="565" y1="552" x2="235" y2="552" stroke="#ffffff" stroke-opacity="0.08" stroke-width="1" marker-end="url(#arrow)"/>
<line x1="565" y1="552" x2="173" y2="497" stroke="#ffffff" stroke-opacity="0.08" stroke-width="1" marker-end="url(#arrow)"/>
<line x1="565" y1="552" x2="313" y2="112" stroke="#ffffff" stroke-opacity="0.08" stroke-width="1" marker-end="url(#arrow)"/>
<line x1="487" y1="588" x2="400" y2="600" stroke="#ffffff" stroke-opacity="0.08" stroke-width="1" marker-end="url(#arrow)"/>
<line x1="400" y1="600" x2="235" y2="552" stroke="#ffffff" stroke-opacity="0.08" stroke-width="1" marker-end="url(#arrow)"/>
<line x1="400" y1="600" x2="173" y2="497" stroke="#ffffff" stroke-opacity="0.08" stroke-width="1" marker-end="url(#arrow)"/>
<line x1="400" y1="600" x2="134" y2="427" stroke="#ffffff" stroke-opacity="0.08" stroke-width="1" marker-end="url(#arrow)"/>
<line x1="400" y1="600" x2="173" y2="203" stroke="#ffffff" stroke-opacity="0.08" stroke-width="1" marker-end="url(#arrow)"/>
<line x1="400" y1="600" x2="235" y2="148" stroke="#ffffff" stroke-opacity="0.08" stroke-width="1" marker-end="url(#arrow)"/>
<line x1="313" y1="588" x2="235" y2="552" stroke="#ffffff" stroke-opacity="0.08" stroke-width="1" marker-end="url(#arrow)"/>
<line x1="313" y1="588" x2="173" y2="497" stroke="#ffffff" stroke-opacity="0.08" stroke-width="1" marker-end="url(#arrow)"/>
<line x1="313" y1="588" x2="173" y2="203" stroke="#ffffff" stroke-opacity="0.08" stroke-width="1" marker-end="url(#arrow)"/>
<line x1="235" y1="552" x2="134" y2="427" stroke="#ffffff" stroke-opacity="0.08" stroke-width="1" marker-end="url(#arrow)"/>
<line x1="235" y1="552" x2="120" y2="350" stroke="#ffffff" stroke-opacity="0.08" stroke-width="1" marker-end="url(#arrow)"/>
<line x1="235" y1="552" x2="134" y2="273" stroke="#ffffff" stroke-opacity="0.08" stroke-width="1" marker-end="url(#arrow)"/>
<line x1="235" y1="552" x2="173" y2="203" stroke="#ffffff" stroke-opacity="0.08" stroke-width="1" marker-end="url(#arrow)"/>
<line x1="235" y1="552" x2="235" y2="148" stroke="#ffffff" stroke-opacity="0.08" stroke-width="1" marker-end="url(#arrow)"/>
<line x1="173" y1="497" x2="120" y2="350" stroke="#ffffff" stroke-opacity="0.08" stroke-width="1" marker-end="url(#arrow)"/>
<line x1="173" y1="497" x2="235" y2="148" stroke="#ffffff" stroke-opacity="0.08" stroke-width="1" marker-end="url(#arrow)"/>
<circle cx="400" cy="100" r="27" fill="#5b8def" fill-opacity="0.3" stroke="#5b8def" stroke-width="2" filter="url(#glow)" class="agent-node" data-idx="0"/>
<circle cx="400" cy="100" r="11" fill="#fff" fill-opacity="0.15"/>
<text x="400" y="141" text-anchor="middle" fill="#ccc" font-size="9" font-family="system-ui">Dr. Amara Ivanova</text>
<text x="400" y="152" text-anchor="middle" fill="#888" font-size="8" font-family="system-ui">Experimentalist</text>
<circle cx="487" cy="112" r="28" fill="#5b8def" fill-opacity="0.3" stroke="#5b8def" stroke-width="2" filter="url(#glow)" class="agent-node" data-idx="1"/>
<circle cx="487" cy="112" r="11" fill="#fff" fill-opacity="0.15"/>
<text x="487" y="155" text-anchor="middle" fill="#ccc" font-size="9" font-family="system-ui">Dr. Henrik Okafor</text>
<text x="487" y="166" text-anchor="middle" fill="#888" font-size="8" font-family="system-ui">Theoretician</text>
<circle cx="565" cy="148" r="28" fill="#5b8def" fill-opacity="0.3" stroke="#5b8def" stroke-width="2" filter="url(#glow)" class="agent-node" data-idx="2"/>
<circle cx="565" cy="148" r="11" fill="#fff" fill-opacity="0.15"/>
<text x="565" y="189" text-anchor="middle" fill="#ccc" font-size="9" font-family="system-ui">Dr. Carlos Kim</text>
<text x="565" y="200" text-anchor="middle" fill="#888" font-size="8" font-family="system-ui">Data Scientist</text>
<circle cx="627" cy="203" r="27" fill="#1ea88e" fill-opacity="0.3" stroke="#1ea88e" stroke-width="2" filter="url(#glow)" class="agent-node" data-idx="3"/>
<circle cx="627" cy="203" r="11" fill="#fff" fill-opacity="0.15"/>
<text x="627" y="245" text-anchor="middle" fill="#ccc" font-size="9" font-family="system-ui">Dr. Zara Nakamura</text>
<text x="627" y="256" text-anchor="middle" fill="#888" font-size="8" font-family="system-ui">Domain Expert</text>
<circle cx="666" cy="273" r="30" fill="#1ea88e" fill-opacity="0.3" stroke="#1ea88e" stroke-width="2" filter="url(#glow)" class="agent-node" data-idx="4"/>
<circle cx="666" cy="273" r="12" fill="#fff" fill-opacity="0.15"/>
<text x="666" y="317" text-anchor="middle" fill="#ccc" font-size="9" font-family="system-ui">Dr. Lucas Ali</text>
<text x="666" y="328" text-anchor="middle" fill="#888" font-size="8" font-family="system-ui">Skeptic</text>
<circle cx="680" cy="350" r="28" fill="#5b8def" fill-opacity="0.3" stroke="#5b8def" stroke-width="2" filter="url(#glow)" class="agent-node" data-idx="5"/>
<circle cx="680" cy="350" r="11" fill="#fff" fill-opacity="0.15"/>
<text x="680" y="392" text-anchor="middle" fill="#ccc" font-size="9" font-family="system-ui">Dr. Dmitri Zhang</text>
<text x="680" y="403" text-anchor="middle" fill="#888" font-size="8" font-family="system-ui">Synthesizer</text>
<circle cx="666" cy="427" r="27" fill="#5b8def" fill-opacity="0.3" stroke="#5b8def" stroke-width="2" filter="url(#glow)" class="agent-node" data-idx="6"/>
<circle cx="666" cy="427" r="11" fill="#fff" fill-opacity="0.15"/>
<text x="666" y="468" text-anchor="middle" fill="#ccc" font-size="9" font-family="system-ui">Dr. Wei Nakamura</text>
<text x="666" y="479" text-anchor="middle" fill="#888" font-size="8" font-family="system-ui">Systems Thinker</text>
<circle cx="627" cy="497" r="26" fill="#1ea88e" fill-opacity="0.3" stroke="#1ea88e" stroke-width="2" filter="url(#glow)" class="agent-node" data-idx="7"/>
<circle cx="627" cy="497" r="10" fill="#fff" fill-opacity="0.15"/>
<text x="627" y="537" text-anchor="middle" fill="#ccc" font-size="9" font-family="system-ui">Dr. Amara Nakamura</text>
<text x="627" y="548" text-anchor="middle" fill="#888" font-size="8" font-family="system-ui">Ethicist</text>
<circle cx="565" cy="552" r="29" fill="#5b8def" fill-opacity="0.3" stroke="#5b8def" stroke-width="2" filter="url(#glow)" class="agent-node" data-idx="8"/>
<circle cx="565" cy="552" r="12" fill="#fff" fill-opacity="0.15"/>
<text x="565" y="595" text-anchor="middle" fill="#ccc" font-size="9" font-family="system-ui">Dr. Marcus Rossi</text>
<text x="565" y="606" text-anchor="middle" fill="#888" font-size="8" font-family="system-ui">Industry Practitioner</text>
<circle cx="487" cy="588" r="25" fill="#5b8def" fill-opacity="0.3" stroke="#5b8def" stroke-width="2" filter="url(#glow)" class="agent-node" data-idx="9"/>
<circle cx="487" cy="588" r="10" fill="#fff" fill-opacity="0.15"/>
<text x="487" y="627" text-anchor="middle" fill="#ccc" font-size="9" font-family="system-ui">Dr. Yuki Petrov</text>
<text x="487" y="638" text-anchor="middle" fill="#888" font-size="8" font-family="system-ui">Historian</text>
<circle cx="400" cy="600" r="26" fill="#1ea88e" fill-opacity="0.3" stroke="#1ea88e" stroke-width="2" filter="url(#glow)" class="agent-node" data-idx="10"/>
<circle cx="400" cy="600" r="11" fill="#fff" fill-opacity="0.15"/>
<text x="400" y="640" text-anchor="middle" fill="#ccc" font-size="9" font-family="system-ui">Dr. Henrik Lindström</text>
<text x="400" y="651" text-anchor="middle" fill="#888" font-size="8" font-family="system-ui">Futurist</text>
<circle cx="313" cy="588" r="28" fill="#e8725a" fill-opacity="0.3" stroke="#e8725a" stroke-width="2" filter="url(#glow)" class="agent-node" data-idx="11"/>
<circle cx="313" cy="588" r="11" fill="#fff" fill-opacity="0.15"/>
<text x="313" y="629" text-anchor="middle" fill="#ccc" font-size="9" font-family="system-ui">Dr. Sarah Patel</text>
<text x="313" y="640" text-anchor="middle" fill="#888" font-size="8" font-family="system-ui">Methodologist</text>
<circle cx="235" cy="552" r="28" fill="#e8725a" fill-opacity="0.3" stroke="#e8725a" stroke-width="2" filter="url(#glow)" class="agent-node" data-idx="12"/>
<circle cx="235" cy="552" r="11" fill="#fff" fill-opacity="0.15"/>
<text x="235" y="594" text-anchor="middle" fill="#ccc" font-size="9" font-family="system-ui">Dr. Fatima Chen</text>
<text x="235" y="605" text-anchor="middle" fill="#888" font-size="8" font-family="system-ui">Clinician</text>
<circle cx="173" cy="497" r="27" fill="#1ea88e" fill-opacity="0.3" stroke="#1ea88e" stroke-width="2" filter="url(#glow)" class="agent-node" data-idx="13"/>
<circle cx="173" cy="497" r="11" fill="#fff" fill-opacity="0.15"/>
<text x="173" y="537" text-anchor="middle" fill="#ccc" font-size="9" font-family="system-ui">Dr. Wei Patel</text>
<text x="173" y="548" text-anchor="middle" fill="#888" font-size="8" font-family="system-ui">Engineer</text>
<circle cx="134" cy="427" r="27" fill="#5b8def" fill-opacity="0.3" stroke="#5b8def" stroke-width="2" filter="url(#glow)" class="agent-node" data-idx="14"/>
<circle cx="134" cy="427" r="11" fill="#fff" fill-opacity="0.15"/>
<text x="134" y="468" text-anchor="middle" fill="#ccc" font-size="9" font-family="system-ui">Dr. Olga Thompson</text>
<text x="134" y="479" text-anchor="middle" fill="#888" font-size="8" font-family="system-ui">Statistician</text>
<circle cx="120" cy="350" r="28" fill="#1ea88e" fill-opacity="0.3" stroke="#1ea88e" stroke-width="2" filter="url(#glow)" class="agent-node" data-idx="15"/>
<circle cx="120" cy="350" r="11" fill="#fff" fill-opacity="0.15"/>
<text x="120" y="392" text-anchor="middle" fill="#ccc" font-size="9" font-family="system-ui">Dr. Kenji Okafor</text>
<text x="120" y="403" text-anchor="middle" fill="#888" font-size="8" font-family="system-ui">Bioinformatician</text>
<circle cx="134" cy="273" r="29" fill="#e8725a" fill-opacity="0.3" stroke="#e8725a" stroke-width="2" filter="url(#glow)" class="agent-node" data-idx="16"/>
<circle cx="134" cy="273" r="11" fill="#fff" fill-opacity="0.15"/>
<text x="134" y="315" text-anchor="middle" fill="#ccc" font-size="9" font-family="system-ui">Dr. Elena Hassan</text>
<text x="134" y="326" text-anchor="middle" fill="#888" font-size="8" font-family="system-ui">Materials Scientist</text>
<circle cx="173" cy="203" r="27" fill="#1ea88e" fill-opacity="0.3" stroke="#1ea88e" stroke-width="2" filter="url(#glow)" class="agent-node" data-idx="17"/>
<circle cx="173" cy="203" r="11" fill="#fff" fill-opacity="0.15"/>
<text x="173" y="244" text-anchor="middle" fill="#ccc" font-size="9" font-family="system-ui">Dr. Zara Suzuki</text>
<text x="173" y="255" text-anchor="middle" fill="#888" font-size="8" font-family="system-ui">Neuroscientist</text>
<circle cx="235" cy="148" r="29" fill="#1ea88e" fill-opacity="0.3" stroke="#1ea88e" stroke-width="2" filter="url(#glow)" class="agent-node" data-idx="18"/>
<circle cx="235" cy="148" r="12" fill="#fff" fill-opacity="0.15"/>
<text x="235" y="191" text-anchor="middle" fill="#ccc" font-size="9" font-family="system-ui">Dr. Tomás Kim</text>
<text x="235" y="202" text-anchor="middle" fill="#888" font-size="8" font-family="system-ui">Economist</text>
<circle cx="313" cy="112" r="28" fill="#1ea88e" fill-opacity="0.3" stroke="#1ea88e" stroke-width="2" filter="url(#glow)" class="agent-node" data-idx="19"/>
<circle cx="313" cy="112" r="11" fill="#fff" fill-opacity="0.15"/>
<text x="313" y="154" text-anchor="middle" fill="#ccc" font-size="9" font-family="system-ui">Dr. Lucas Zhang</text>
<text x="313" y="165" text-anchor="middle" fill="#888" font-size="8" font-family="system-ui">Policy Analyst</text>
<text x="400" y="345" text-anchor="middle" fill="#fff" font-size="13" font-family="system-ui" opacity="0.6">20 agents</text>
<text x="400" y="362" text-anchor="middle" fill="#fff" font-size="11" font-family="system-ui" opacity="0.4">5 rounds</text>
<rect x="20" y="630" width="250" height="55" fill="#111" fill-opacity="0.8" rx="6"/>
<circle cx="35" cy="648" r="6" fill="#1ea88e"/><text x="48" y="652" fill="#aaa" font-size="10">Supportive</text>
<circle cx="130" cy="648" r="6" fill="#e8725a"/><text x="143" y="652" fill="#aaa" font-size="10">Critical</text>
<circle cx="215" cy="648" r="6" fill="#5b8def"/><text x="228" y="652" fill="#aaa" font-size="10">Neutral</text>
<text x="35" y="672" fill="#666" font-size="9">Run: test_run_d4aefdc484</text>
</svg>